HIERARCHY
ROOT Hips
{
	OFFSET -0.179506 -22.333345 2.821913
	CHANNELS 6 Xposition Yposition Zposition Zrotation Yrotation Xrotation 
	JOINT LeftUpLeg
	{
		OFFSET 6.951974 -9.140623 -0.681533
		CHANNELS 3 Zrotation Yrotation Xrotation
		JOINT LeftLeg
		{
			OFFSET 3.427654 -37.519855 -0.449580
			CHANNELS 3 Zrotation Yrotation Xrotation
			JOINT LeftFoot
			{
				OFFSET -1.359570 -39.796059 -4.369333
				CHANNELS 3 Zrotation Yrotation Xrotation
				JOINT LeftToe
				{
					OFFSET 2.635814 -5.579078 11.928840
					CHANNELS 3 Zrotation Yrotation Xrotation
					End Site
					{
						OFFSET 0.000000 0.000000 0.000000
					}
				}
			}
		}
	}
	JOINT RightUpLeg
	{
		OFFSET -6.767048 -9.052170 -0.431982
		CHANNELS 3 Zrotation Yrotation Xrotation
		JOINT RightLeg
		{
			OFFSET -3.829005 -38.256897 -0.885003
			CHANNELS 3 Zrotation Yrotation Xrotation
			JOINT RightFoot
			{
				OFFSET 1.577377 -39.841461 -4.231180
				CHANNELS 3 Zrotation Yrotation Xrotation
				JOINT RightToe
				{
					OFFSET -2.537174 -4.814398 12.334795
					CHANNELS 3 Zrotation Yrotation Xrotation
					End Site
					{
						OFFSET 0.000000 0.000000 0.000000
					}
				}
			}
		}
	}
	JOINT Spine
	{
		OFFSET -0.253288 10.896323 -2.669631
		CHANNELS 3 Zrotation Yrotation Xrotation
		JOINT Spine1
		{
			OFFSET 0.548704 13.518043 0.109247
			CHANNELS 3 Zrotation Yrotation Xrotation
			JOINT Spine2
			{
				OFFSET 0.145701 5.292222 2.542457
				CHANNELS 3 Zrotation Yrotation Xrotation
				JOINT Neck
				{
					OFFSET -0.277840 21.387037 -4.285703
					CHANNELS 3 Zrotation Yrotation Xrotation
					JOINT Head
					{
						OFFSET 0.515184 6.496960 5.134897
						CHANNELS 3 Zrotation Yrotation Xrotation
						End Site
						{
							OFFSET 0.000000 0.000000 0.000000
						}
					}
				}
				JOINT LeftShoulder
				{
					OFFSET 7.884473 12.174932 -3.408961
					CHANNELS 3 Zrotation Yrotation Xrotation
					JOINT LeftArm
					{
						OFFSET 9.097692 3.046888 -0.886815
						CHANNELS 3 Zrotation Yrotation Xrotation
						JOINT LeftForeArm
						{
							OFFSET 25.961220 -1.277207 -2.745643
							CHANNELS 3 Zrotation Yrotation Xrotation
							JOINT LeftHand
							{
								OFFSET 24.923361 0.898606 -0.117091
								CHANNELS 3 Zrotation Yrotation Xrotation
								End Site
								{
									OFFSET 0.000000 0.000000 0.000000
								}
							}
						}
					}
				}
				JOINT RightShoulder
				{
					OFFSET -8.175920 11.883285 -3.861528
					CHANNELS 3 Zrotation Yrotation Xrotation
					JOINT RightArm
					{
						OFFSET -9.601238 3.255117 -0.914307
						CHANNELS 3 Zrotation Yrotation Xrotation
						JOINT RightForeArm
						{
							OFFSET -25.374195 -1.332924 -2.140099
							CHANNELS 3 Zrotation Yrotation Xrotation
							JOINT RightHand
							{
								OFFSET -25.529810 0.777228 -0.555919
								CHANNELS 3 Zrotation Yrotation Xrotation
								End Site
								{
									OFFSET 0.000000 0.000000 0.000000
								}
							}
						}
					}
				}
			}
		}
	}
}
MOTION
Frames: 18
Frame Time: 0.033333
49.537746 10.031160 11.447944 -102.676872 -3.859612 -179.051418 0.542075 -7.761720 -8.997425 -10.394531 -12.572788 19.339933 -3.683046 -2.444447 -12.999136 nan nan nan -4.642025 4.766994 -11.580767 4.791543 1.343283 22.731651 7.808548 5.161810 -9.337388 nan nan nan -1.316286 0.106978 -0.781394 3.256442 -2.727587 8.709565 0.318476 -1.898935 -7.395369 8.922427 -18.193528 -10.754330 16.456497 -22.465525 -24.289415 -13.609924 11.245112 7.386935 -52.580841 7.603451 -4.809589 150.315240 -34.166191 -115.420224 20.618029 -38.343591 1.846188 13.847451 -9.217970 8.521467 42.366451 -7.481166 -19.582069 -156.209604 42.025880 -130.437687 -24.203711 27.935698 0.813284 
49.524319 10.023344 11.444384 -102.696551 -3.823311 -179.064983 0.515251 -7.782301 -8.908362 -10.419271 -12.637511 19.240366 -3.678234 -2.300455 -12.954158 nan nan nan -4.652307 4.780326 -11.572394 4.800922 1.371214 22.716156 7.783022 5.102348 -9.305528 nan nan nan -1.400831 0.121323 -0.731936 3.278968 -2.669559 8.625336 0.324890 -1.848538 -7.315233 9.000316 -18.272369 -10.945849 16.393481 -22.454653 -24.219046 -13.562328 11.478485 7.314014 -52.381583 7.439507 -4.780406 150.509389 -34.482627 -115.891234 20.656278 -38.336776 1.652529 13.914549 -9.430334 8.349235 42.123553 -7.418093 -19.580637 -156.229730 42.077555 -130.692338 -24.170678 27.773790 0.759498 
49.467316 9.831510 11.450455 -102.727177 -4.382328 -179.035591 0.241119 -8.253305 -9.018386 -10.235509 -12.748713 19.400119 -3.593095 -2.229621 -12.883983 nan nan nan -4.946276 4.486915 -11.361996 5.029031 1.144041 22.401119 7.943333 5.062278 -9.260319 nan nan nan -1.008470 0.041007 -0.676026 3.176400 -2.978595 8.002625 0.133997 -2.008593 -6.873434 8.674559 -18.527506 -10.784788 16.607250 -22.259127 -24.234919 -13.640284 11.608771 7.285191 -52.332777 7.376592 -4.926320 150.767304 -34.886161 -116.500541 20.753901 -38.842046 1.285522 13.848005 -9.385821 8.386683 41.972285 -7.559691 -19.792943 -156.288153 42.173151 -131.127737 -23.628116 28.111106 1.170235 
49.511665 9.983419 11.485889 -102.725835 -3.942318 -178.966782 0.478747 -7.868217 -9.050596 -10.364024 -12.497077 19.309366 -3.598564 -2.480451 -12.958404 nan nan nan -4.737065 4.750596 -11.706621 4.773770 1.178389 22.723482 8.034592 5.324354 -9.276765 nan nan nan -1.329122 -0.035424 -0.775937 3.272032 -2.793097 8.470533 0.179890 -1.877243 -7.369410 8.773585 -18.010242 -10.696696 16.710390 -22.625760 -24.293267 -13.418406 11.949344 7.320358 -52.313007 7.226306 -4.751188 150.427623 -34.789363 -116.413431 20.407689 -39.036737 1.509459 14.076510 -9.379042 8.625966 41.987907 -7.339538 -19.397159 -156.089672 42.155216 -130.756247 -23.776332 28.276882 1.158108 
49.474758 9.828462 11.460631 -102.725957 -4.421874 -179.021608 0.279105 -8.203734 -9.034217 -10.323591 -12.852792 19.463512 -3.549690 -2.327996 -13.072196 nan nan nan -4.940319 4.443793 -11.355182 4.976664 1.094422 22.363477 8.080328 5.147298 -9.229394 nan nan nan -1.076325 -0.013393 -0.829802 3.237579 -3.024255 8.337419 0.087146 -2.013867 -7.078175 8.694174 -18.313352 -10.744241 16.879093 -22.380783 -24.309103 -13.646416 11.704833 7.318026 -52.255148 7.226311 -4.967470 150.494288 -34.741163 -116.257889 20.896233 -38.676346 1.701813 14.064277 -9.353308 8.427621 41.880303 -7.537244 -19.494158 -155.938359 42.145085 -130.801206 -24.217034 28.203030 1.204702 
49.505493 9.968526 11.471122 -102.716554 -3.948249 -178.996206 0.475552 -7.850706 -8.965366 -10.433410 -12.697998 19.286315 -3.524791 -2.303949 -12.910996 nan nan nan -4.742595 4.650527 -11.645070 4.835963 1.284713 22.677806 8.012721 5.153687 -9.297679 nan nan nan -1.405180 0.024930 -0.905706 3.245209 -2.771976 8.714827 0.228686 -1.854638 -7.314610 8.989188 -18.166706 -10.849277 16.830982 -22.356117 -24.283109 -13.712473 11.410122 7.217140 -52.128275 7.532359 -4.984211 150.322133 -34.288890 -115.727772 21.028368 -38.255379 1.635213 14.188501 -9.290000 8.178263 41.868509 -7.575714 -19.402898 -155.923426 42.079163 -130.671333 -24.040933 28.060215 0.997554 
49.503262 9.959799 11.470658 -102.737495 -3.938265 -179.005632 0.430487 -7.795092 -8.929174 -10.426037 -12.761698 19.258455 -3.502797 -2.330947 -12.746694 nan nan nan -4.759219 4.627689 -11.646177 4.827077 1.313702 22.706751 7.982418 5.145338 -9.349362 nan nan nan -1.393164 0.013067 -0.937766 3.238440 -2.766248 8.818374 0.241233 -1.844979 -7.333863 8.941084 -18.182100 -10.918214 16.808560 -22.349776 -24.304905 -13.888443 11.368964 7.125428 -51.996684 7.593307 -4.953899 150.292000 -34.262102 -115.694815 21.391296 -38.217621 1.496549 14.281372 -9.276242 8.216772 41.775437 -7.656328 -19.396566 -155.858647 42.047157 -130.593838 -24.578954 28.099229 1.019222 
49.496773 9.968051 11.467061 -102.735267 -3.919657 -179.057100 0.435462 -7.756743 -8.835117 -10.464040 -12.861639 19.196638 -3.521794 -2.407813 -12.743901 nan nan nan -4.735944 4.607306 -11.590935 4.828811 1.365369 22.713354 8.010806 5.193325 -9.355637 nan nan nan -1.418015 0.007720 -0.827928 3.258233 -2.731305 8.632925 0.259987 -1.819293 -7.178449 8.906073 -18.137195 -10.971661 16.857132 -22.424451 -24.335578 -13.832792 11.639057 7.016063 -51.905352 7.361888 -4.945988 150.377727 -34.574053 -116.018929 21.336611 -38.293753 1.602045 14.333771 -9.377440 8.253103 41.610395 -7.496395 -19.547410 -155.972507 42.003751 -130.936604 -24.210615 28.176462 1.139005 
49.497654 9.984558 11.469850 -102.742998 -3.880876 -179.085956 0.456065 -7.773065 -8.796132 -10.454164 -12.737384 19.166633 -3.532800 -2.492725 -12.834147 nan nan nan -4.739423 4.641478 -11.589106 4.844472 1.373295 22.752284 8.011606 5.412855 -9.215006 nan nan nan -1.496791 -0.000524 -0.746306 3.313125 -2.703880 8.581106 0.241961 -1.814057 -7.178090 8.903622 -18.045336 -11.047298 16.882685 -22.619455 -24.238460 -13.641810 11.861619 7.057092 -52.043789 7.095417 -4.817997 150.298185 -34.691294 -116.121478 21.256761 -38.480529 1.701690 14.497089 -9.504528 8.290717 41.512953 -7.466330 -19.273519 -155.828089 42.103834 -130.823463 -24.291480 28.240057 1.273192 
49.436962 9.790798 11.444633 -102.741766 -4.516303 -179.074380 0.208406 -8.321322 -8.893404 -10.225184 -12.788390 19.333864 -3.509953 -2.433004 -12.965394 nan nan nan -5.007456 4.383518 -11.283578 5.116792 1.165017 22.393510 7.973839 5.508729 -9.000991 nan nan nan -0.964382 -0.089521 -0.769466 3.161785 -3.047432 8.107663 -0.054723 -2.007833 -6.809674 8.544038 -18.492204 -10.740623 17.197309 -22.468596 -24.279597 -13.657265 11.746699 7.120530 -52.213656 7.168038 -4.821087 150.331613 -34.773674 -116.177274 21.000806 -38.847419 1.596062 14.226064 -9.496540 8.048354 41.710857 -7.652628 -19.139279 -155.885466 42.265231 -130.948818 -23.760823 28.466516 1.624080 
49.487671 9.981922 11.523249 -102.762128 -3.827722 -178.852124 0.476903 -7.895442 -9.117019 -10.388378 -12.449678 19.201699 -3.588116 -2.477557 -13.006999 nan nan nan -4.816400 4.869795 -12.027864 4.896758 1.286625 23.005559 7.826024 5.759176 -9.033473 nan nan nan -1.292177 -0.150739 -1.016860 3.163309 -2.661747 8.531838 -0.051869 -1.747469 -7.199694 8.851792 -18.153031 -10.569221 17.224511 -22.655923 -24.476209 -13.479669 12.105958 6.945201 -51.869032 7.146444 -4.422197 150.312007 -34.938637 -116.364903 20.505363 -39.106940 1.556986 14.182880 -9.717605 7.529828 42.056903 -7.422211 -18.477656 -155.961365 42.403529 -130.745232 -23.651342 28.426535 1.436475 
49.473797 9.979307 11.493274 -102.758478 -3.876910 -178.903168 0.443624 -7.916607 -9.017081 -10.391128 -12.596546 19.185153 -3.611295 -2.391720 -13.004421 nan nan nan -4.792421 4.836819 -11.924568 4.870548 1.282952 22.946156 7.730792 5.681378 -9.203901 nan nan nan -1.284646 -0.168423 -1.100193 3.153906 -2.687758 8.660369 -0.029798 -1.721815 -7.177947 8.870172 -18.176830 -10.469039 17.234099 -22.301512 -24.691513 -13.633734 11.998258 6.976513 -51.747642 7.144682 -4.493460 150.317601 -34.916737 -116.344068 20.539756 -39.025371 1.618977 14.031065 -9.764982 7.321393 42.183107 -7.378657 -18.483407 -156.049249 42.454267 -130.762247 -23.641960 28.338247 1.426282 
49.476257 9.978884 11.476354 -102.739251 -3.899052 -178.983593 0.461335 -7.877215 -8.932919 -10.447060 -12.698964 19.195033 -3.620446 -2.255884 -13.010998 nan nan nan -4.751347 4.752190 -11.814961 4.845316 1.268021 22.897096 7.736163 5.449049 -9.333594 nan nan nan -1.391959 -0.111996 -0.999722 3.222736 -2.676296 8.718284 0.083369 -1.683512 -7.257565 8.988822 -18.244882 -10.563958 16.997236 -22.246371 -24.657241 -13.612561 11.844944 7.064429 -51.857152 7.061564 -4.749021 150.323504 -34.825235 -116.029411 20.586066 -38.569327 1.898929 13.951326 -9.740719 7.408937 42.186623 -7.506757 -18.690708 -156.072663 42.357370 -130.678516 -23.724911 28.124537 1.149416 
49.444016 9.837030 11.456212 -102.710247 -4.316617 -179.064639 0.323805 -8.173671 -8.917842 -10.382614 -12.899443 19.337570 -3.630279 -2.176923 -13.019877 nan nan nan -4.881756 4.452905 -11.490116 4.996953 1.157306 22.590459 7.900772 5.207611 -9.236690 nan nan nan -1.197584 -0.043630 -0.807122 3.221952 -2.889092 8.321843 0.091230 -1.844316 -7.000598 8.928307 -18.386907 -10.758892 16.783061 -22.255185 -24.360226 -13.612407 11.667352 7.140676 -52.108922 7.058708 -5.088849 150.492286 -34.844565 -116.048002 20.776091 -38.412146 1.972707 13.901187 -9.530274 7.842616 42.014194 -7.704180 -19.308491 -156.028837 42.194347 -130.869258 -23.756790 28.127180 1.139835 
49.437084 9.825457 11.451585 -102.693032 -4.335243 -179.084507 0.348822 -8.210806 -8.892642 -10.409810 -12.963449 19.366500 -3.631320 -2.265215 -13.022741 nan nan nan -4.846564 4.416516 -11.431204 4.987324 1.188879 22.533851 7.976418 5.160596 -9.255772 nan nan nan -1.227283 -0.021090 -0.771482 3.235164 -2.921126 8.182221 0.142159 -1.864791 -6.912722 8.877166 -18.267507 -10.687484 16.787992 -22.383049 -24.315711 -13.553290 11.610196 7.193897 -52.214058 7.091106 -5.203034 150.529165 -34.829755 -116.172337 20.941751 -38.428576 1.922212 13.990120 -9.357425 8.242986 41.941596 -7.725753 -19.635141 -155.967139 42.105056 -130.895887 -23.974554 28.126170 1.203665 
49.469563 9.940656 11.471115 -102.695403 -3.966079 -179.029999 0.514362 -7.919356 -8.936546 -10.508620 -12.823866 19.334713 -3.613178 -2.371549 -13.113167 nan nan nan -4.692658 4.631261 -11.680692 4.829895 1.281467 22.737626 7.907518 5.253617 -9.342928 nan nan nan -1.524735 -0.001095 -0.838181 3.320690 -2.703797 8.447772 0.226338 -1.744770 -7.150574 9.001854 -18.122869 -10.700611 16.792756 -22.706574 -24.279379 -13.387215 11.743160 7.203023 -52.256640 6.946747 -4.987074 150.400665 -34.767893 -116.108934 20.853580 -38.400133 1.765867 14.193204 -9.491990 8.200478 41.875504 -7.592436 -19.346736 -155.853563 42.093933 -130.642336 -24.286168 27.977668 1.061320 
49.425064 9.763032 11.460159 -102.706919 -4.507821 -179.044329 0.260778 -8.336387 -9.012135 -10.308722 -12.931788 19.520967 -3.595053 -2.296848 -13.282290 nan nan nan -4.938879 4.330982 -11.390194 5.016467 1.053771 22.393435 7.901124 5.207315 -9.335764 nan nan nan -1.115778 -0.026542 -0.776314 3.218364 -2.957214 8.113004 0.038070 -1.932132 -6.789399 8.863802 -18.553835 -10.942485 16.868776 -22.590439 -24.105487 -13.479995 11.659452 7.214522 -52.424778 6.824858 -4.992493 150.393477 -34.715290 -116.094095 20.684064 -38.515048 1.591185 14.053158 -9.564732 8.041801 41.840677 -7.574022 -19.458152 -155.876644 42.051198 -130.833583 -23.875971 28.085720 1.334078 
49.465157 9.930481 11.466892 -102.699408 -3.984034 -179.028680 0.499673 -7.941368 -8.942936 -10.438106 -12.711006 19.346933 -3.696190 -2.313426 -13.352476 nan nan nan -4.679288 4.619818 -11.639875 4.750098 1.187661 22.656980 7.858162 5.305594 -9.353525 nan nan nan -1.493796 -0.015566 -0.881291 3.327336 -2.709573 8.649696 0.154684 -1.783162 -7.111158 9.133304 -18.106336 -11.166910 16.752748 -22.765378 -24.168567 -13.418568 11.918108 7.130278 -52.214295 6.720540 -4.785939 150.294602 -34.648429 -116.083334 20.259583 -38.570187 1.793983 14.308993 -9.614672 8.083602 41.843447 -7.343661 -19.099139 -155.693931 42.008181 -130.379317 -24.148475 27.967865 1.199363 
